<svg xmlns="http://www.w3.org/2000/svg" width="4274.559" height="617" viewBox="0 0 4274.559 617">
  <defs>
    <style>
      .cls-1 {
        fill: #fff;
        fill-rule: nonzero;
      }
    </style>
  </defs>
  <path id="header_logo" class="cls-1" d="M126.438,380.211H373.016q67.688,0,120.534-23.771t84.786-66.48q31.932-42.7,36.875-99.115,5-57.205-19.462-99.92T522.631,24.042Q473.98-.132,406.292-0.132H54.152L1.277,604.227h152.3L202.855,40.964,127.8,115.905H376q42.7,0,65.961,19.742,23.238,19.755,20.15,55.2-3.1,35.469-29.809,55.2-26.715,19.755-69.415,19.742H136.449ZM421.911,604.227H598.384L400.725,321.387H229.087ZM780.443,245.641l-9.87,112.813H1208.13L1218,245.641H780.443Zm79.773-193.4-69.933,71.717H1250.4l10.86-124.1H712.5l20.3,302.179-73.174,302.18H1212.41l10.86-124.095H759.122l57.385,71.717,62.145-249.8ZM1457.07-.132H1294.3l230.77,604.359h171.64L2033.23-.132H1872.87L1585.78,536.539h66.08Zm583.72,604.359h152.3L2245.96-.132h-152.3Zm460.92,0h152.3L2701.03,66.75h-152.3ZM2307.52,134.439h622.89L2942.18-.132H2319.29ZM3159.75-.132h-152.3l-30.1,344.082q-7.185,82.193,25.32,143.434t97.21,95.489q64.7,34.241,154.94,34.247t160.94-34.247q70.68-34.24,113.51-95.489,42.825-61.229,50.02-143.434L3609.39-.132H3457.9L3428.43,336.7q-3.87,44.327-23.65,76.955a130.75,130.75,0,0,1-54.33,49.961q-34.575,17.337-83.71,17.325-48.345,0-79.87-17.325a103.425,103.425,0,0,1-46-49.961q-14.475-32.634-10.59-76.955Zm560.04,0-52.87,604.359h152.29l48.3-551.981-74.7,70.911h242.55q43.515,0,66.62,21.354t19.8,59.227q-3.315,37.887-30.16,59.228-26.85,21.36-70.36,21.354H3765.01l-10.79,123.289h264.31q74.13,0,129.94-25.383t88.43-71.315q32.625-45.93,37.99-107.173T4255.66,96.566q-24.6-45.931-75.96-71.314T4054.2-.132H3719.79Z" transform="translate(-1.281)"/>
</svg>
